<?xml version="1.0" encoding="utf-8"?>
<!-- Generator: Adobe Illustrator 26.0.2, SVG Export Plug-In . SVG Version: 6.00 Build 0)  -->
<svg version="1.1" id="Lag_1" xmlns="http://www.w3.org/2000/svg" xmlns:xlink="http://www.w3.org/1999/xlink" x="0px" y="0px"
	 viewBox="0 0 424.7 71.6" style="enable-background:new 0 0 424.7 71.6;" xml:space="preserve">
<style type="text/css">
	.st0{fill:#464E47;}
	.st1{fill:#568259;}
	.st2{fill:#00684A;}
</style>
<g id="Layer_2">
	<g id="Layer_1-2">
		<path class="st0" d="M55.1,70.2v-1.9l1.5-0.4c2.2-0.7,3.3-2.4,3.3-5c0-2.3,0-4.5,0-6.8s0-4.6,0-6.8v-38c0.1-1.1-0.2-2.2-0.7-3.1
			c-0.7-0.8-1.6-1.4-2.6-1.6l-1.5-0.4V4.2L72.6,0l1.3,0.9L73.5,15v47.9c0,1.1,0.3,2.3,0.8,3.2c0.6,0.9,1.6,1.5,2.7,1.8l1.4,0.4v1.9
			L55.1,70.2z"/>
		<path class="st0" d="M96.4,71.6c-3.5,0.1-6.9-1-9.7-3.2c-2.6-2.2-4-5.3-4-9.3c0-3.2,1.5-6.1,4.7-8.8c3.1-2.7,8-4.7,14.7-6
			c1.1-0.3,2.4-0.5,4-0.8s3-0.5,4.4-0.8v-7.1c0-4.5-0.6-7.7-1.7-9.4c-1.2-1.8-3.3-2.8-5.4-2.6h-0.3c-1.4-0.1-2.7,0.5-3.7,1.5
			c-1.1,1.4-1.7,3-1.8,4.8l-0.3,1.3c-0.2,2.7-0.9,4.6-2.1,5.8c-1.2,1.2-2.8,1.9-4.5,1.8c-1.5,0-3-0.5-4.2-1.5c-1.1-1-1.7-2.5-1.7-4
			c-0.1-2.6,1-5.1,2.8-6.9c2.1-2,4.7-3.4,7.4-4.2c3.2-1,6.6-1.4,10-1.4c5.9,0,10.5,1.4,13.6,4.3c3.1,2.9,4.7,7.5,4.7,14v22.2
			c0,2.9,1.4,4.3,4.1,4.3h2.4l1,1.1c-1.1,1.4-2.4,2.6-4,3.6c-1.9,0.9-3.9,1.3-6,1.2c-2.4,0.1-4.9-0.6-6.8-2
			c-1.7-1.4-2.9-3.3-3.3-5.5c-1.9,2.1-4,3.9-6.3,5.5C102.1,71,99.2,71.7,96.4,71.6z M102.2,65.2c1.3,0,2.6-0.3,3.8-0.9
			c1.6-0.9,3.1-1.9,4.5-3v-16c-1.7,0.3-3.5,0.6-5.3,1c-2.6,0.5-5.1,1.8-7,3.7c-1.8,2-2.8,4.6-2.7,7.3c0,2.7,0.6,4.7,1.8,6
			C98.7,64.6,100.4,65.3,102.2,65.2z"/>
		<path class="st0" d="M135,70.2v-1.9l1.6-0.4c2.2-0.7,3.3-2.3,3.3-4.9V33.5c0-1.1-0.2-2.2-0.7-3.2c-0.6-0.9-1.5-1.5-2.6-1.5
			l-1.6-0.4v-1.8l16.2-5.8l1.2,1.1l0.7,6.2c2.4-2.1,5.1-3.9,8.1-5.2c2.7-1.3,5.7-2,8.8-2c4.4,0,7.8,1.2,10.1,3.6s3.5,6.1,3.6,11
			v27.8c-0.2,2.3,1.3,4.4,3.6,4.9l1.1,0.3v1.9h-23v-1.9l1.5-0.4c2.2-0.7,3.3-2.4,3.3-4.9V33.3c0-2.3-0.5-4-1.5-5.1s-2.7-1.6-5-1.6
			c-3.3,0-6.7,1.4-10.2,4.3v32.2c0,2.6,1.2,4.2,3.5,4.9l1,0.3v1.9L135,70.2z"/>
		<path class="st0" d="M208.7,71.6c-4.1,0-7.4-1-9.8-3c-2.4-2-3.5-5.3-3.6-10c0-1.6,0-3.1,0-4.5s0.1-3.1,0.1-5V25.3h-7.1v-2.2
			l2.7-0.4c1.8-0.3,3.5-0.9,5-1.8c1.5-1,2.7-2.2,3.8-3.6l6.5-9h3L209,22.2h11.4v3.1h-11.5v34.1c-0.1,1.9,0.4,3.8,1.6,5.4
			c0.9,1.2,2.4,1.8,3.9,1.8c1.3,0,2.5-0.3,3.6-0.9c1.2-0.7,2.2-1.6,3.2-2.5l1.3,1.5c-1.2,2.2-3.1,4-5.3,5.2
			C214.5,71.1,211.6,71.7,208.7,71.6z"/>
		<path class="st0" d="M299.1,71.6c-3.5,0.1-6.9-1-9.6-3.2c-2.7-2.2-4-5.3-4-9.3c0-3.2,1.6-6.1,4.6-8.8c3.1-2.7,8-4.7,14.6-6
			c1.1-0.3,2.5-0.5,4-0.8s3-0.5,4.5-0.8v-7.1c0-4.5-0.6-7.7-1.7-9.4c-1.2-1.8-3.3-2.8-5.4-2.6h-0.3c-1.4-0.1-2.7,0.5-3.6,1.5
			c-1.1,1.4-1.7,3-1.8,4.8l-0.3,1.3c-0.2,2.7-0.9,4.6-2.1,5.8c-1.2,1.2-2.8,1.9-4.5,1.8c-1.5,0-3-0.5-4.1-1.5c-1.1-1-1.7-2.5-1.6-4
			c-0.1-2.6,1-5.1,2.8-6.9c2.1-2,4.7-3.5,7.5-4.2c3.2-1,6.6-1.4,10-1.4c5.9,0,10.5,1.4,13.6,4.3c3.1,2.9,4.7,7.5,4.7,14v22.3
			c0,2.9,1.4,4.3,4.1,4.3h2.3l1,1.1c-1.1,1.4-2.4,2.6-4,3.6c-1.9,0.9-3.9,1.3-6,1.2c-2.4,0.1-4.9-0.6-6.9-2
			c-1.7-1.4-2.9-3.3-3.4-5.5c-1.9,2.1-4,3.9-6.3,5.5C304.8,71,301.9,71.7,299.1,71.6z M304.9,65.2c1.3,0,2.6-0.3,3.8-0.9
			c1.6-0.9,3.1-1.9,4.5-3v-16c-1.7,0.3-3.5,0.6-5.3,1c-2.6,0.5-5,1.8-6.9,3.7c-1.8,2-2.8,4.6-2.6,7.3c0,2.7,0.6,4.7,1.9,6
			C301.4,64.6,303.1,65.3,304.9,65.2z"/>
		<path class="st0" d="M353.3,71.6c-2.9,0.1-5.8-0.3-8.6-1c-2.6-0.7-5-1.7-7.4-3V55.8h2.7l3,5.7c1,2.1,2.5,4,4.4,5.5
			c1.8,1.3,4,1.9,6.2,1.8c2.6,0.2,5.3-0.5,7.5-2c1.8-1.3,2.9-3.3,2.8-5.5c0.1-2-0.7-3.8-2.1-5.2c-1.4-1.3-3.9-2.6-7.5-3.7l-4.4-1.4
			c-3.5-1-6.8-2.8-9.4-5.5c-2.3-2.5-3.6-5.8-3.5-9.2c0-2.8,0.8-5.5,2.3-7.9c1.7-2.5,4-4.4,6.7-5.6c3.4-1.5,7-2.2,10.7-2.1
			c2.5,0,5.1,0.3,7.5,1c2.3,0.6,4.6,1.5,6.8,2.6L370.5,35h-2.6l-3.1-5.7c-0.7-1.7-1.9-3.2-3.2-4.5c-1.5-0.9-3.3-1.4-5-1.2
			c-2.3,0-4.5,0.6-6.4,1.9c-1.8,1.1-2.8,3.1-2.8,5.1c0,1.9,0.8,3.8,2.3,5c2.2,1.7,4.7,2.9,7.4,3.7l4.3,1.3c4.9,1.5,8.3,3.6,10.4,6.1
			c2.1,2.6,3.2,5.8,3.1,9.1c0.1,4.5-2,8.8-5.6,11.4C365.5,70.1,360.2,71.6,353.3,71.6z"/>
		<path class="st0" d="M404.5,20.7c3.8-0.1,7.5,0.8,10.8,2.6c2.9,1.7,5.4,4.2,7,7.1c1.7,3.2,2.5,6.8,2.5,10.5c0,0.9,0,1.7-0.1,2.5
			c-0.1,0.7-0.2,1.4-0.4,2.2h-30.1c0.1,6.9,1.3,11.8,3.9,14.8c2.5,3,6.2,4.5,11,4.5c2.8,0.1,5.6-0.5,8.1-1.7
			c2.2-1.2,4.1-2.8,5.7-4.7l1.6,1.5c-1.9,3.5-4.7,6.5-8.1,8.6c-3.7,2.1-8,3.1-12.2,3c-4.4,0.1-8.7-0.9-12.5-3
			c-3.6-2-6.5-4.9-8.4-8.6c-2.2-4.2-3.2-8.9-3.1-13.6c-0.2-4.9,1.1-9.7,3.5-13.9c2.2-3.7,5.4-6.7,9.2-8.8
			C396.3,21.8,400.4,20.7,404.5,20.7z M404,23.6c-1.8,0-3.6,0.6-5,1.6c-1.4,1.1-2.6,3-3.4,5.8c-1,3.8-1.5,7.7-1.5,11.7H412
			c0.7-6.7,0.5-11.6-0.8-14.6S407.5,23.6,404,23.6z"/>
		<path class="st1" d="M275.2,40.8c-3.3-3-8.6-4.9-15.9-5.7c6.3-1.2,10.8-3.2,13.3-6c2.4-2.5,3.8-5.9,3.8-9.4
			c0.1-3.6-1.3-7.1-3.8-9.7c-0.5-0.6-1.4-0.6-2-0.1c0,0-0.1,0.1-0.1,0.1c-1.4,1.7-3,3.2-4.8,4.4c-0.8,0.5-1.7,1-2.6,1.4
			c-1.8,0.9-3.8,1.7-5.8,2.5s-3.9,1.6-5.7,2.5c-0.9,0.4-1.7,0.9-2.5,1.4c-0.7,0.5-1.4,1-2.1,1.5c-0.6,0.5-1.1,1-1.6,1.5
			c-0.4,0.4-0.7,0.9-1,1.3c-0.2,0.4-0.4,0.7-0.5,0.9c5.3-6.7,11.3-3.2,19.2-9c0.1-0.1,0.4-0.3,0.6-0.2c0.3,0.2,0.5,0.5,0.5,0.8
			c0.1,0.3,0.1,0.7,0.2,1c0.1,0.6,0.1,1.3,0,1.9c-0.1,0.6-0.3,1.3-0.5,1.8c-0.3,0.6-0.6,1.1-1,1.6c-0.8,1-1.8,1.8-2.9,2.4
			c-0.1,0.1-0.3,0.1-0.4,0.2l-0.4,0.2c-0.3,0.1-0.6,0.2-0.9,0.3c-0.6,0.2-1.2,0.4-1.8,0.5c-1.2,0.2-2.4,0.3-3.6,0.3
			c-1.2,0-2.4,0-3.6,0c-1.2,0-2.4,0.1-3.6,0.4c-0.6,0.1-1.1,0.3-1.6,0.6c-0.5,0.3-0.9,0.7-1.2,1.2l0,0c-0.1,0.1-0.2,0.1-0.3,0
			c0,0-0.1,0-0.1-0.1c-0.7-1.3-1.1-2.8-1.2-4.3c-0.1-1.5,0-3,0.4-4.5c0.4-1.4,1-2.8,1.8-4.1c0.8-1.3,1.8-2.4,2.9-3.4
			c1.1-1,2.4-1.8,3.7-2.5c1.4-0.6,2.9-1,4.4-1.1c0.8,0,1.5,0,2.3,0.1c0.8,0.1,1.5,0.4,2.2,0.7c0.7,0.3,1.4,0.7,2,1.2l0,0
			c0.9,0.7,2.1,0.7,3,0.1c0.4-0.2,0.7-0.4,0.9-0.6l0.1-0.1c2.1-1.5,2.6-4.4,1.1-6.5c-0.6-0.9-1.6-1.5-2.7-1.8
			c-3.2-0.7-6.5-1.1-9.9-1h-28.2v2.1l1.6,0.5c1.2,0.3,2.2,1,2.9,2c0.5,1.1,0.8,2.4,0.7,3.7c0,3.9,0,7.7,0.1,11.6s0,7.7,0,11.5l0,0
			c0,1.3,0.9,2.4,2.1,2.7c0.3,0.1,0.6,0.2,0.9,0.3c1.1,0.4,2.2,0.9,3.2,1.4c1.1,0.6,2.2,1.3,3.2,2.1c2.1,1.5,4.3,3.3,6.4,5.1
			s4.2,3.6,6.3,5.1c1,0.8,2.1,1.4,3.1,2c1,0.6,2,1,3,1.5c0.9,0.4,1.8,0.6,2.7,0.9c0.7,0.2,1.4,0.3,2.1,0.3c0.5,0,1,0,1.3,0
			c-11-2-10.6-11-22-16.4c-0.2-0.1-0.5-0.2-0.5-0.5c0-0.4,0.2-0.8,0.6-1.1c0.3-0.3,0.6-0.6,1-0.8c0.7-0.5,1.4-0.9,2.2-1.1
			c0.8-0.3,1.6-0.4,2.4-0.5c0.8-0.1,1.7,0,2.5,0.1c1.6,0.3,3.1,0.9,4.5,1.8l0.5,0.3l0.5,0.3c0.3,0.3,0.6,0.5,0.9,0.8
			c0.6,0.5,1.1,1.1,1.6,1.8c1,1.2,1.9,2.6,2.6,4c0.8,1.4,1.5,2.8,2.2,4.1c0.7,1.4,1.6,2.7,2.6,3.9c0.5,0.5,1,1,1.6,1.4
			c0.5,0.3,1,0.5,1.6,0.6l0.7,0.2l0,0c0.1,0,0.2,0.1,0.2,0.3c0,0,0,0,0,0c0,0,0,0.1,0,0.1c-1.1,1.6-2.5,2.9-4.1,4
			c-1.6,1.1-3.4,1.8-5.3,2.3c-1.9,0.4-3.9,0.6-5.8,0.4c-1.9-0.2-3.8-0.6-5.7-1.3c-1.8-0.7-3.6-1.6-5.1-2.8c-1.6-1.2-2.9-2.7-4-4.3
			c-0.5-0.9-0.9-1.8-1.2-2.7c-0.3-1-0.5-2-0.6-3c-0.1-1,0-2,0.1-3c0.1-0.5,0.2-1,0.3-1.5c0.1-0.2,0.1-0.5,0.2-0.7v-0.1l-0.3-0.2
			c-1-0.7-2.1-1.3-3.2-1.8c-1-0.5-2-0.9-3-1.1l0,0c-1-0.2-2,0.4-2.3,1.4c0,0.2-0.1,0.3-0.1,0.5v8.5c0,3.8,0,7.7-0.1,11.5
			c0.1,1.2-0.2,2.4-0.8,3.5c-0.7,1-1.7,1.8-2.8,2.1l-1.6,0.5v2.1h25.1c4.9,0.1,9.7-0.4,14.4-1.7c3.3-0.8,6.4-2.3,9.1-4.3
			c2.1-1.6,3.7-3.6,4.8-6c0.9-2,1.4-4.2,1.4-6.5C280.2,47.6,278.4,43.6,275.2,40.8z"/>
		<path class="st1" d="M45.3,9.6c-4.4-3.6-11.5-5.5-21.2-5.5H0v2.1l1.9,0.6c1.1,0.3,2,0.9,2.7,1.8c0.5,1,0.7,2.1,0.6,3.2
			c0.1,3.9,0.1,7.7,0.1,11.6v12.2c0,1.3,1.1,2.3,2.4,2.3c0.5,0,1-0.2,1.5-0.5l0,0c1.1-0.9,2.3-1.7,3.5-2.4c2.5-1.5,5.3-2.9,8.1-4.3
			s5.5-2.7,8-4.2c1.2-0.7,2.4-1.5,3.4-2.3c1-0.7,2-1.6,2.8-2.4c0.7-0.7,1.4-1.5,2-2.4c0.5-0.7,0.9-1.3,1.3-2c0.3-0.5,0.4-1,0.6-1.3
			c-6.9,10.4-16,6-26.6,15.3c-0.2,0.1-0.5,0.4-0.8,0.3c-0.4-0.2-0.7-0.6-0.8-1.1c-0.2-0.4-0.3-0.9-0.4-1.4c-0.2-0.9-0.3-1.9-0.2-2.8
			c0.1-0.9,0.3-1.8,0.6-2.7c0.3-0.9,0.8-1.7,1.3-2.5c1-1.5,2.3-2.8,3.9-3.8c0.2-0.1,0.4-0.2,0.6-0.4l0.5-0.3
			c0.4-0.2,0.8-0.4,1.2-0.6c0.8-0.4,1.7-0.6,2.5-0.9c1.7-0.5,3.5-0.8,5.3-0.9c1.7-0.2,3.5-0.3,5.2-0.5c1.7-0.1,3.4-0.4,5.1-0.9
			c0.8-0.2,1.6-0.6,2.2-1.1c0.7-0.5,1.3-1.1,1.7-1.9l0,0c0.1-0.1,0.3-0.2,0.4-0.1c0,0,0.1,0.1,0.1,0.1c1.1,1.8,1.9,3.9,2.3,6
			c0.4,2.1,0.4,4.3,0,6.5c-0.4,2.1-1.1,4.2-2.2,6.1c-1,1.9-2.3,3.7-3.8,5.3c-1.5,1.6-3.2,2.9-5.1,4c-1.9,1.1-4,1.8-6.2,2.1
			c-1.1,0.2-2.2,0.2-3.3,0.1c-1.1-0.1-2.3-0.4-3.3-0.8c-1.6-0.6-3-1.4-4.3-2.5L14,36.4c-0.4,0.4-2.6,1.8-3.6,2.7
			c-0.9,0.8-1.7,1.6-2.5,2.5c-0.6,0.8-1.1,1.6-1.6,2.4c-0.3,0.6-0.6,1.3-0.8,2c-0.1,0.3-0.1,0.6-0.2,0.8v0.3v0.1v0.1v0.3V51
			c0,3.9,0,7.8-0.1,11.5c0.1,1.1-0.2,2.3-0.6,3.3c-0.6,0.9-1.6,1.6-2.7,1.8l-2,0.5v2.1h26.4v-2.1l-3-0.8c-2.5-0.6-3.7-2.3-3.7-5
			c-0.1-3.1-0.1-6.1-0.1-9v-8.7h3.6c7.1,0,12.8-0.9,17-2.8c4.2-1.9,7.2-4.4,9-7.5C51,31.1,52,27.5,52,23.9
			C52.2,18.3,49.7,13,45.3,9.6z"/>
		<path class="st2" d="M14.7,37L14,36.4c-0.3,0.5-2.6,1.8-3.6,2.7"/>
	</g>
</g>
</svg>
